<?xml version="1.0" encoding="utf-8"?>
<!-- Generator: Adobe Illustrator 18.1.1, SVG Export Plug-In . SVG Version: 6.00 Build 0)  -->
<svg version="1.1" id="Layer_1" xmlns="http://www.w3.org/2000/svg" xmlns:xlink="http://www.w3.org/1999/xlink" x="0px" y="0px"
	 viewBox="0 0 110.4 29.7" enable-background="new 0 0 110.4 29.7" xml:space="preserve">
<g>
	<g>
		<path fill="#FABA00" d="M5.9,18.5L5.9,18.5C5.9,18.5,5.9,18.5,5.9,18.5c0-0.3,0.2-0.5,0.4-0.5H7h7.4V7.3c0-1.7-1.4-3.2-3.2-3.2h-8
			C1.4,4.1,0,5.5,0,7.3v6.5c0,9,7.5,14.4,13.6,14.4l0.1,0l0,0c0.4,0,0.7-0.3,0.7-0.7V25C10,24.6,6.5,21.9,5.9,18.5z"/>
		<path fill="#00ABE8" d="M30,0H19.9c-1.7,0-3.2,1.4-3.2,3.2V18H24h0.8c0.2,0,0.4,0.2,0.4,0.4c0,0,0,0,0,0c-0.6,3.4-4.1,6.1-8.5,6.5
			v3.6c0,0.6,0.5,1.1,1,1c10.3-0.8,15.4-8.3,15.4-16.9V3.2C33.1,1.4,31.7,0,30,0z"/>
	</g>
	<g>
		<polygon fill="#154A68" points="83.7,7.1 83.7,17.5 75.2,7.1 75.2,7.1 72.8,7.1 72.8,23.2 76,23.2 76,13 84.4,23.2 86.9,23.2 
			86.9,7.1 		"/>
		<rect x="107.2" y="7.1" fill="#154A68" width="3.2" height="16.1"/>
		<path fill="#154A68" d="M96.6,7.1l-6.2,0v16.1h6.2c4.4,0,8-3.6,8-8C104.7,10.7,101.1,7.1,96.6,7.1z M96.6,20h-3v-9.7h3
			c2.7,0,4.8,2.2,4.8,4.8C101.5,17.9,99.3,20,96.6,20z"/>
		<path fill="#154A68" d="M49.2,7.1v10.2h0c0,1.7-1.4,3.1-3.1,3.1c-1.5,0-2.7-1-3-2.4h-3.3c0.4,3.1,3,5.6,6.3,5.6
			c3.5,0,6.3-2.8,6.3-6.3V7.1H49.2z"/>
		<path fill="#154A68" d="M63.9,7.1h-3.2l-6.9,16.1h3.4l1.4-3.2h7.6l1.4,3.2h3.4L63.9,7.1z M59.8,17.2l2.5-5.9l2.5,5.9H59.8z"/>
	</g>
</g>
</svg>
