<?xml version="1.0" encoding="UTF-8" standalone="no"?>
<svg width="147px" height="85px" viewBox="0 0 147 85" version="1.1" xmlns="http://www.w3.org/2000/svg" xmlns:xlink="http://www.w3.org/1999/xlink" xmlns:sketch="http://www.bohemiancoding.com/sketch/ns">
    <!-- Generator: Sketch 3.4.1 (15681) - http://www.bohemiancoding.com/sketch -->
    <title>A + a + Line + Line + Line Copy</title>
    <desc>Created with Sketch.</desc>
    <defs></defs>
    <g id="webapp__zoom-info" stroke="none" stroke-width="1" fill="none" fill-rule="evenodd" sketch:type="MSPage">
        <g id="webapp__zoom-info-KO" sketch:type="MSArtboardGroup" transform="translate(-642.000000, -366.000000)">
            <g id="EN" sketch:type="MSLayerGroup" transform="translate(596.000000, 332.000000)">
                <g id="A-+-a-+-Line-+-Line-+-Line-Copy" transform="translate(46.000000, 33.000000)" sketch:type="MSShapeGroup">
                    <path d="M50.9126446,56.0360367 L21.2184068,56.0360367 L19.2003518,61.1862303 C16.2020837,68.374386 14.2595375,73.2972478 13.9524316,75.0497306 C13.6453256,76.8022135 15.5005763,79.3775486 17.0958087,80.5883876 C18.6910412,81.7992267 20.737905,82.4046371 22.4585578,82.5551361 L22.9589182,85.056938 L0,85.056938 L0.442701653,82.5551361 C3.45954015,81.8664864 6.03493696,80.6460559 7.7262677,78.7433088 C9.41759844,76.8405617 11.4548526,72.8333211 13.8380914,66.7214669 C14.0302881,66.1448769 14.9528183,63.9154289 16.6057097,60.033056 L39.3232431,6 L41.5719329,6 L67.6913304,67.8746412 L71.2661707,76.0621786 C72.0733967,77.9072666 73.1592917,79.3583298 74.5238881,80.4154115 C75.8884844,81.4724932 77.9353483,82.1355618 79.4996396,82.4046371 L80,85.056938 L49.9324465,85.056938 L50.4787383,82.4046371 C53.6995013,82.4046371 56.246069,82.1259561 57.5722261,81.5685858 C58.8983831,81.0112154 59.5614517,79.9061011 59.5614517,78.2532097 C59.5614517,77.4075443 58.6773603,74.8898057 56.9091509,70.6999182 L50.9126446,56.0360367 Z M49.9324465,54.0345952 L36.0943551,20.306202 L22.3139224,54.0345952 L49.9324465,54.0345952 Z" id="A" fill="#FFFFFF"></path>
                    <path d="M130,75.8403614 C130.112303,81.9468177 127.104521,85 122,85 C118.976225,85 117.051602,84.3572248 115.637207,83.071655 C114.222812,81.7860853 113.300783,79.8756145 112.871094,77.3401853 C109.290347,79.8756145 106.022964,81.7860853 103.068848,83.071655 C100.114731,84.3572248 97.47397,85 95,85 C92.1744643,85 89.6142686,84.1429664 87.4658203,82.4288734 C85.3173721,80.7147804 84.2431641,78.4472122 84,76 C84.2431641,71.947943 86.0424625,68.7340668 89.6411133,65.984376 C93.2397641,63.2346851 98.2079761,60.556455 104.545898,57.9496053 L113,54.5750016 L113,52.432396 C112.871094,49.397023 112.674156,47.2008743 112.280273,45.843884 C111.886391,44.4868938 110.865894,43.2727628 109.21875,42.2014547 C107.571606,41.1301465 105.780808,39.994571 103.068848,39.994571 C98.0981445,39.994571 93.9291992,43.4020442 93.4104004,46.1996053 C92.8374809,49.8420529 91.3056641,51.9619967 89,52 C86.6943359,51.9619967 85.9619141,50.3790761 86,49 C85.9619141,46.272395 87.4120949,44.0851737 90.3125,41.746151 C93.2129051,39.4071283 97.8601074,38 103,38 C108.562178,38 111.922188,38.9518291 114.428711,40.38024 C116.935234,41.8086508 118.344727,43.7217307 119,45.2546675 C119.655273,46.7876044 120,50.2143555 120,53.6108291 L120,71.3408898 C120.605469,75.4832812 120.328857,77.8300628 121,79.3220954 C121.671143,80.8141279 122.61067,81.0897449 124.042969,81.0897449 C126.406262,81.0897449 127.874346,79.3399679 128.447266,75.8403614 L130,75.8403614 Z M112.871094,57.092563 L107.016602,59.4494291 C97.7782741,63.1990075 93.1591797,67.9126926 93.1591797,73.5906256 C93.1591797,75.8403726 93.7499941,77.6526417 94.9316406,79.0274871 C96.1132872,80.4023325 97.6529853,81.0897449 99.5507812,81.0897449 C101.233732,81.0897449 103.18521,80.536244 105.405273,79.4292256 C107.625337,78.3222072 110.113919,76.6617046 112.871094,74.4476678 L112.871094,57.092563 Z" id="a" fill="#FFFFFF"></path>
                    <g id="Line-+-Line-+-Line-Copy" transform="translate(138.000000, 0.000000)" stroke="#FFFFFF" stroke-linecap="square" opacity="0.5">
                        <path d="M4.5,2 L4.5,84" id="Line"></path>
                        <path d="M0.5,1.5 L8.5,1.5" id="Line"></path>
                        <path d="M0.5,84.5 L8.5,84.5" id="Line-Copy"></path>
                    </g>
                </g>
            </g>
        </g>
    </g>
</svg>