<?xml version="1.0" encoding="utf-8"?>
<!-- Generator: Adobe Illustrator 18.0.0, SVG Export Plug-In . SVG Version: 6.00 Build 0)  -->
<!DOCTYPE svg PUBLIC "-//W3C//DTD SVG 1.1//EN" "http://www.w3.org/Graphics/SVG/1.1/DTD/svg11.dtd">
<svg version="1.1" id="Layer_1" xmlns="http://www.w3.org/2000/svg" xmlns:xlink="http://www.w3.org/1999/xlink" x="0px" y="0px"
	 viewBox="0 0 145 145" enable-background="new 0 0 145 145" xml:space="preserve">
<g>
	<path fill="#D39775" d="M14.1,4.7c21.2,0,37.9,5.9,45.2,9.4c-18.6,7.1-34.2,20.6-45.2,36.8c-4.2-20.6-2.5-40.3-1.4-46.2
		C13.2,4.7,13.6,4.7,14.1,4.7"/>
	<path fill="#D39775" d="M131,4.7c-21.2,0-37.9,5.9-45.2,9.4c18.6,7.1,34.2,20.6,45.2,36.8c4.2-20.6,2.5-40.3,1.4-46.2
		C131.8,4.7,131.4,4.7,131,4.7"/>
	<path fill="#FFFFFF" d="M21.2,13.1c13,0,24.2,3.6,28.6,5.7c-11.4,4.4-21,12.7-27.8,22.6c-2.6-12.7-2.4-24.7-1.7-28.4
		C20.6,13.1,20.9,13.1,21.2,13.1"/>
	<path fill="#FFFFFF" d="M123.8,13.1c-13,0-24.2,3.6-28.6,5.7c11.4,4.4,21,12.7,27.8,22.6c2.6-12.7,2.4-24.7,1.7-28.4
		C124.4,13.1,124.1,13.1,123.8,13.1"/>
	<path fill="#BB704E" d="M141.4,81.8c0.6,17-3.8,30.5-13.3,40.4c-11.6,12.1-30.3,18.2-55.5,18.2c-25.3,0-44-6.1-55.6-18.2
		C7.5,112.3,3,98.7,3.7,81.8C4.7,53.9,25,23.2,54.6,14.1c0.1,0,0.3-0.1,0.4-0.1c5.5-1.7,11.4-2.6,17.5-2.6c6.1,0,12,0.9,17.6,2.6
		c0.1,0,0.2,0.1,0.4,0.1C120,23.2,140.3,53.9,141.4,81.8"/>
	<path d="M72.5,142.8c-25.9,0-45.1-6.4-57.2-19C5.3,113.5,0.6,99.3,1.2,81.6c0.5-12.1,4.3-24.5,11-35.8C7.9,29,9.2,12.5,9.9,6.1
		c0.3-2.3,2.2-4,4.5-4c22,0,37,7.6,40.2,9.4c11.7-3.4,24-3.4,35.7,0c3.2-1.7,18.2-9.4,40.2-9.4c2.3,0,4.3,1.7,4.5,4
		c0.8,6.4,2.1,22.9-2.3,39.7c6.7,11.3,10.5,23.7,11,35.8c0.7,17.7-4.1,31.9-14.1,42.3C117.6,136.5,98.4,142.8,72.5,142.8z
		 M15.3,45.5c0.2,0.4,0.1,0.9-0.1,1.3C8.5,57.8,4.8,69.9,4.3,81.7C3.7,98.5,8.1,112,17.5,121.7c11.5,12,30,18,55,18
		c25,0,43.5-6.1,55-18c9.4-9.8,13.8-23.2,13.2-40.1c-0.5-11.8-4.2-23.9-10.9-34.9c-0.3-0.4-0.3-1-0.1-1.4C134,29,132.8,12.8,132,6.5
		c-0.1-0.7-0.7-1.3-1.5-1.3c-22.4,0-37.7,8.4-39.1,9.2c-0.4,0.3-0.9,0.4-1.3,0.2c-11.5-3.5-23.7-3.5-35.2,0c-0.5,0.2-1,0-1.4-0.2
		c-1.7-0.9-16.8-9.2-39.1-9.2c-0.7,0-1.4,0.6-1.5,1.3C12.2,12.8,11,29.1,15.3,45.5z"/>
	<path fill="#FFFFFF" d="M86.1,76.5c-7.5-1.8-7.4-5.3-13.4-5.3c-6,0-5.9,3.5-13.4,5.3c-3.4,0.8-6.1,3.3-6.1,8.8
		c0,7.4,7.3,16.5,19.5,16.5c12.2,0,19.5-9.2,19.5-16.5C92.2,79.7,89.6,77.3,86.1,76.5"/>
	<path d="M78.5,78.7c0,2.4-2.6,4.5-5.7,4.5c-3.2,0-5.7-2.1-5.7-4.5c0-2.4,2.6-3.7,5.7-3.7C75.9,75,78.5,76.4,78.5,78.7"/>
	<path d="M63.1,68.9c0,2.1-1.4,3.9-3,3.9c-1.7,0-3-1.7-3-3.9c0-2.1,1.4-3.9,3-3.9C61.8,65,63.1,66.7,63.1,68.9"/>
	<path d="M82.3,68.9c0,2.1,1.4,3.9,3,3.9c1.7,0,3-1.7,3-3.9c0-2.1-1.4-3.9-3-3.9C83.7,65,82.3,66.7,82.3,68.9"/>
	<path fill="#DE4848" d="M69.4,87c0,0-3-0.8-2.5,2.4c0.4,3.2,2.1,5.2,6.4,5.4c4.2,0.2,5-7,5-7l-6.9-1.9"/>
	<path d="M67.7,88.5c-3.1,0-4.6-1.3-4.8-1.5c-0.6-0.6-0.6-1.6-0.1-2.2c0.6-0.6,1.6-0.6,2.2-0.1c0,0,1,0.8,3.2,0.6
		c2.7-0.2,2.9-3.4,2.9-4.4c0-0.9,0.7-1.5,1.5-1.5c0.9,0,1.5,0.7,1.5,1.5c0,3.3-1.5,7.2-5.8,7.5C68.2,88.5,67.9,88.5,67.7,88.5z"/>
	<path d="M77.7,88.5c-0.2,0-0.5,0-0.7,0c-4.3-0.3-5.8-4.2-5.8-7.5c0-0.9,0.7-1.5,1.5-1.5c0.9,0,1.5,0.7,1.5,1.5c0,1,0.2,4.2,2.9,4.4
		c2.3,0.1,3.2-0.6,3.3-0.7c0.6-0.5,1.6-0.5,2.2,0.1c0.6,0.6,0.5,1.6-0.1,2.1C82.4,87.1,80.8,88.5,77.7,88.5z"/>
	<path d="M72.7,96.3c-5.6,0-7.3-6-7.4-9.2c0-0.9,0.6-1.6,1.5-1.6c0.8,0,1.6,0.6,1.6,1.5c0,0.3,0.3,6.3,4.3,6.3
		c0.9,0,1.5,0.7,1.5,1.5C74.2,95.7,73.6,96.3,72.7,96.3z"/>
	<path d="M72.7,96.3c-0.9,0-1.5-0.7-1.5-1.5c0-0.9,0.7-1.5,1.5-1.5c4,0,4.3-6,4.3-6.3c0-0.8,0.8-1.5,1.6-1.5c0.8,0,1.5,0.7,1.5,1.6
		C80,90.3,78.3,96.3,72.7,96.3z"/>
	<path d="M46,83.4c-0.1,0-0.2,0-0.3,0c-4.5-0.8-8.1-1.3-8.1-1.3c-0.8-0.1-1.4-0.9-1.3-1.7c0.1-0.8,0.9-1.4,1.7-1.3
		c0,0,3.6,0.5,8.3,1.3c0.8,0.2,1.4,1,1.2,1.8C47.3,82.8,46.7,83.4,46,83.4z"/>
	<path d="M39.3,92.7c-0.7,0-1.3-0.5-1.5-1.2c-0.2-0.8,0.3-1.7,1.2-1.9c0.1,0,2.8-0.7,6.3-1.3c0.8-0.2,1.6,0.4,1.8,1.2
		c0.2,0.8-0.4,1.6-1.2,1.8c-3.4,0.6-6.2,1.3-6.2,1.3C39.6,92.7,39.4,92.7,39.3,92.7z"/>
	<path d="M99.7,83.3c-0.8,0-1.4-0.6-1.5-1.3c-0.1-0.8,0.5-1.6,1.3-1.7c4-0.6,8.2-1.2,8.2-1.2c0.8-0.1,1.6,0.5,1.7,1.3
		c0.1,0.8-0.5,1.6-1.3,1.7c0,0-4.2,0.6-8.2,1.2C99.9,83.3,99.8,83.3,99.7,83.3z"/>
	<path d="M106.4,92.7c-0.1,0-0.2,0-0.3,0c0,0-3.7-0.8-6.2-1.3c-0.8-0.2-1.4-1-1.2-1.8c0.2-0.8,1-1.4,1.8-1.2
		c2.5,0.5,6.3,1.3,6.3,1.3c0.8,0.2,1.4,1,1.2,1.8C107.7,92.2,107.1,92.7,106.4,92.7z"/>
	<path fill="#FFFFFF" d="M62.2,60.1h-5.7c-1.1,0-2.1-0.9-2.1-2.1c0-1.1,0.9-2.1,2.1-2.1h5.7c1.1,0,2.1,0.9,2.1,2.1
		C64.3,59.2,63.4,60.1,62.2,60.1z"/>
	<path fill="#FFFFFF" d="M88.4,60.1h-5.7c-1.1,0-2.1-0.9-2.1-2.1c0-1.1,0.9-2.1,2.1-2.1h5.7c1.1,0,2.1,0.9,2.1,2.1
		C90.5,59.2,89.6,60.1,88.4,60.1z"/>
</g>
</svg>
