<?xml version="1.0" encoding="utf-8"?>
<!-- Generator: Adobe Illustrator 18.0.0, SVG Export Plug-In . SVG Version: 6.00 Build 0)  -->
<!DOCTYPE svg PUBLIC "-//W3C//DTD SVG 1.1//EN" "http://www.w3.org/Graphics/SVG/1.1/DTD/svg11.dtd">
<svg version="1.1" id="Layer_1" xmlns="http://www.w3.org/2000/svg" xmlns:xlink="http://www.w3.org/1999/xlink" x="0px" y="0px"
	 viewBox="0 0 35 35" enable-background="new 0 0 35 35" xml:space="preserve">
<path fill="#F9F9F9" stroke="#000000" stroke-width="0.6408" stroke-linecap="round" stroke-linejoin="round" stroke-miterlimit="10" d="
	M6.9,6C7.1,6,7.1,6.2,7,6.3c-0.4,0.3-1.1,1-1.2,1.1c-5.7,5.8-6.1,16.7-0.2,22.4c6,5.7,16.6,6.5,22.8,1.1c5.6-4.8,7-14.7,2.8-20.9
	c-3.6-5.2-9.8-7.3-15.8-6.7c-0.4,0-3.6,0.5-4.4,0.9c0,0-0.1-2-1.1-3.3c-0.4-0.5-1-0.7-1.5-0.2C7.3,1.6,8.6,4.1,9.1,5
	c0,0-2.3-2.3-3.4-2.5C4.7,2.5,3.8,4.4,6.9,6z"/>
<path d="M10.2,18.5c0,0,0-0.1,0-0.1c0.3-0.9,1.5-1.2,2.2-0.6c0.5,0.4,0.7,1.2,0.5,1.7c-0.2,0.6-0.7,1-1.3,1.1
	C10.6,20.7,9.9,19.5,10.2,18.5z"/>
<path d="M23.4,20.1c-0.4-0.5-0.5-1.3-0.2-1.9c0.4-0.7,1.2-0.9,1.9-0.5c1.3,0.6,0.9,2.8-0.5,3C24.2,20.7,23.7,20.5,23.4,20.1z"/>
<path fill="#C5C5C5" stroke="#000000" stroke-width="0.7205" stroke-miterlimit="10" d="M15,23.3c0,0-0.1,0.7,0.3,1.2
	c0.4,0.5,1.2,1.2,1.7,1.4c0.5,0.2,1.9,0.4,2.7-0.2c0.8-0.5,2-2.1,1.9-2.7C21.6,23,17.1,22.2,15,23.3z"/>
<path fill="none" stroke="#000000" stroke-width="0.6655" stroke-linecap="round" stroke-linejoin="round" stroke-miterlimit="10" d="
	M22.9,14.3c0.3-0.3,0.7-0.6,1.2-0.8c0.5-0.1,1-0.1,1.5,0c0.5,0.1,1,0.3,1.3,0.7"/>
<path fill="none" stroke="#000000" stroke-width="0.6655" stroke-linecap="round" stroke-linejoin="round" stroke-miterlimit="10" d="
	M12.2,14.3c-0.3-0.3-0.7-0.6-1.2-0.8c-0.5-0.1-1-0.1-1.5,0c-0.5,0.1-1,0.3-1.3,0.7"/>
<path fill="#C5C5C5" stroke="#000000" stroke-width="0.7205" stroke-miterlimit="10" d="M15.5,23.7c0,0-0.8,0.1-0.7-0.5
	c0.1-0.5,0.6-1,1-1.4c0.9-0.8,2.2-0.9,3.3-0.8c1.1,0.1,2,0.6,2.5,1.6c0.3,0.6,0,0.9-0.6,0.9C20.4,23.6,17.2,23.9,15.5,23.7z"/>
<path fill="#989898" d="M9.8,23.9c-0.9,0.3-3.1,0.2-3.1-1c0-1.3,2.7-1.2,3.6-0.8c1,0.4,0.5,1.4-0.3,1.7C9.9,23.8,9.9,23.9,9.8,23.9z
	"/>
<path fill="#989898" d="M28.6,23.9c-0.9,0.3-3.1,0.2-3.1-1c0-1.3,2.7-1.2,3.6-0.8c1,0.4,0.5,1.4-0.3,1.7
	C28.6,23.8,28.6,23.9,28.6,23.9z"/>
</svg>
