<?xml version="1.0" encoding="utf-8"?>
<!-- Generator: Adobe Illustrator 18.1.1, SVG Export Plug-In . SVG Version: 6.00 Build 0)  -->
<svg version="1.1" id="Layer_1" xmlns="http://www.w3.org/2000/svg" xmlns:xlink="http://www.w3.org/1999/xlink" x="0px" y="0px"
	 viewBox="0 0 40 40" enable-background="new 0 0 40 40" xml:space="preserve">
<g>
	<path fill="#FFFFFF" d="M31,7.8c0,0-1.1-5.7-3.3-5.6c-1.9,0.1-5.1,3.5-5.1,3.5s-2.2-0.3-4.3,0c0,0-3.6-4.1-5.4-3.4
		C11.1,3,9.6,7.6,9.6,7.6s-8.4,4.3-9.1,14.7C0,31,6.4,37.2,17.9,37.7c11.2,0.5,20.5-5,21.5-14.2C40.5,12.9,31,7.8,31,7.8z"/>
	<path fill="#1C1C1B" d="M13.3,2.2c1.9,0,4.9,3.5,4.9,3.5c0.7-0.1,1.4-0.1,2-0.1c1.3,0,2.3,0.1,2.3,0.1s3.2-3.4,5.1-3.5
		c0,0,0,0,0.1,0c2.1,0,3.2,5.6,3.2,5.6s9.6,5,8.4,15.7c-0.9,8.8-9.5,14.3-20.1,14.3c-0.5,0-1,0-1.4,0C6.4,37.2,0,31,0.5,22.3
		C1.2,11.9,9.6,7.6,9.6,7.6s1.5-4.6,3.2-5.3C13,2.3,13.1,2.2,13.3,2.2 M13.3,1.7L13.3,1.7c-0.2,0-0.5,0-0.7,0.1
		c-1.7,0.7-3.1,4.4-3.4,5.4C8.6,7.6,6.8,8.7,5,10.7c-2.1,2.2-4.6,6-4.9,11.5c-0.2,3.9,0.9,7.5,3.4,10.2c3.1,3.5,8.1,5.5,14.5,5.8
		c0.5,0,1,0,1.5,0c5.3,0,10.3-1.4,13.9-3.9c3.9-2.7,6.2-6.4,6.6-10.8c0.6-5.7-1.8-9.8-3.9-12.2c-1.9-2.2-3.9-3.5-4.6-3.8
		c-0.1-0.5-0.4-1.6-0.8-2.7c-0.8-2.1-1.8-3.1-2.9-3.1c0,0-0.1,0-0.1,0c-1.8,0.1-4.5,2.7-5.3,3.5c-0.4,0-1.1-0.1-2.1-0.1
		c-0.7,0-1.3,0-1.8,0.1C17.7,4.4,15.2,1.7,13.3,1.7L13.3,1.7z"/>
	<path fill="#9C9B9B" d="M27.9,3c0.9,0.3,2.1,3.8,1.8,4.3c-0.4,0.5-5.7-0.8-5.9-1.3C23.6,5.5,26.8,2.7,27.9,3z"/>
	<path fill="#9C9B9B" d="M13.2,3c1.4-0.3,3.9,2.6,3.6,3c-0.3,0.4-5.1,1.6-5.6,1.2C10.6,6.9,12.2,3.3,13.2,3z"/>
	<path fill="#1C1C1B" d="M19.5,22c-1.3-0.2-2.3,1-1.8,1.9c0.5,0.9,2.5,0.9,3.1,0.4C21.4,23.8,21.1,22.2,19.5,22z"/>
	<path fill-rule="evenodd" clip-rule="evenodd" fill="#868686" d="M13.5,24.7c0,0,5.3,1.8,11.5,0c0,0-1.9,2.7,0.2,6.6
		c0,0-6.6,2.1-11.3,0C13.9,31.3,15.7,28.7,13.5,24.7z"/>
	<path fill="#1C1C1B" d="M18.9,32.5c-2,0-3.7-0.3-5.1-0.9l-0.3-0.1l0.2-0.2c0.1-0.1,1.7-2.5-0.4-6.3L13,24.3l0.6,0.2
		c0,0,2.4,0.8,5.7,0.8c1.9,0,3.8-0.3,5.6-0.8l0.7-0.2l-0.4,0.6c-0.1,0.1-1.8,2.6,0.2,6.3l0.1,0.3l-0.3,0.1
		C25.3,31.6,22.3,32.5,18.9,32.5z M14.2,31.2c1.3,0.5,2.9,0.8,4.7,0.8c2.7,0,5.1-0.6,5.9-0.8c-1.4-2.9-0.8-5.1-0.4-6.1
		c-1.7,0.4-3.4,0.7-5.2,0.7c-2.5,0-4.4-0.4-5.3-0.7C15.5,28.2,14.6,30.5,14.2,31.2z"/>
	<g>
		
			<ellipse transform="matrix(-0.9953 -9.717095e-02 9.717095e-02 -0.9953 15.5505 55.7069)" fill-rule="evenodd" clip-rule="evenodd" fill="#D9D9D9" cx="9.1" cy="27.5" rx="4.3" ry="4"/>
	</g>
	
		<ellipse transform="matrix(-0.9895 -0.1448 0.1448 -0.9895 18.9827 53.3661)" fill-rule="evenodd" clip-rule="evenodd" fill="#FFFFFF" cx="11.4" cy="26" rx="0.8" ry="0.6"/>
	<path fill="#FFFFFF" d="M10.6,25.9c-0.1,0.9,1.5,1.1,1.7,0.3C12.5,25.2,10.8,25,10.6,25.9c0,0.1,0.2,0.2,0.2,0
		c0.1-0.6,1.3-0.5,1.3,0.1c0.1,0.7-1.4,0.6-1.3-0.2C10.8,25.7,10.6,25.7,10.6,25.9z"/>
	<g>
		
			<ellipse transform="matrix(0.9953 -9.717263e-02 9.717263e-02 0.9953 -2.5285 2.9969)" fill-rule="evenodd" clip-rule="evenodd" fill="#D9D9D9" cx="29.5" cy="27.5" rx="4.3" ry="4"/>
	</g>
	
		<ellipse transform="matrix(0.9895 -0.1448 0.1448 0.9895 -3.4743 4.2124)" fill-rule="evenodd" clip-rule="evenodd" fill="#FFFFFF" cx="27.2" cy="26" rx="0.8" ry="0.6"/>
	<path fill="#FFFFFF" d="M27.9,25.9c0,0.6-1.1,0.8-1.3,0.3C26.3,25.5,27.7,25.2,27.9,25.9c0,0.2,0.2,0.1,0.2,0
		c-0.2-0.9-1.8-0.7-1.7,0.3c0.1,0.9,1.8,0.7,1.7-0.2C28.1,25.7,27.9,25.7,27.9,25.9z"/>
	<path fill="#1C1C1B" d="M17.8,9.4c-0.1,0-0.1,0-0.2-0.1c-0.6-0.6-1.1-0.9-1.5-0.9c-0.5,0.1-0.7,0.7-0.7,0.8c0,0.1-0.2,0.2-0.3,0.2
		c-0.1,0-0.2-0.2-0.2-0.3c0,0,0.3-0.9,1-1.1c0.6-0.1,1.2,0.2,2,1c0.1,0.1,0.1,0.3,0,0.4C17.9,9.4,17.9,9.4,17.8,9.4z"/>
	<path fill="#1C1C1B" d="M22.6,9.4c-0.1,0-0.2-0.1-0.2-0.2l0,0c0,0-0.2-0.6-0.7-0.8c-0.4-0.1-0.9,0.2-1.5,0.9
		c-0.1,0.1-0.2,0.1-0.4,0c-0.1-0.1-0.1-0.2,0-0.4c0.7-0.8,1.4-1.1,2-1c0.7,0.2,1,1.1,1,1.1C22.8,9.2,22.8,9.4,22.6,9.4
		C22.6,9.4,22.6,9.4,22.6,9.4z"/>
	<path fill="#1C1C1B" d="M27.2,33c0,0-0.1,0-0.1,0c-1.8-0.9-2.9-3.3-2.9-5c-0.1-1.2,0.2-2.3,0.6-3.1c0.5-1.1,1.8-2.8,3-3.1
		c0.1,0,0.3,0.1,0.3,0.2c0,0.1-0.1,0.3-0.2,0.3c-1,0.2-2.2,1.8-2.6,2.8c0,0,0,0,0,0c-0.4,0.8-0.6,1.7-0.6,2.9
		c0.1,1.6,1.1,3.8,2.7,4.6c0.1,0.1,0.2,0.2,0.1,0.3C27.3,33,27.2,33,27.2,33z"/>
	<path fill="#1C1C1B" d="M11.5,33c-0.1,0-0.2-0.1-0.2-0.2c0-0.1,0-0.3,0.2-0.3c1.8-0.4,2.4-1.8,2.6-2.8c0.5-2.4-0.8-5.6-2.6-7
		c-0.1-0.1-0.1-0.2-0.1-0.3c0.1-0.1,0.2-0.1,0.3-0.1c2,1.4,3.3,4.9,2.8,7.5C14.4,31,13.6,32.5,11.5,33C11.6,33,11.5,33,11.5,33z"/>
	<path fill="#1C1C1B" d="M19.2,25.5c-0.1,0-0.2-0.1-0.2-0.2c0-0.4,0.1-0.9,0.1-1.3c0-0.1,0-0.2,0.1-0.2c0-0.1,0.2-0.2,0.3-0.2
		c0.1,0,0.2,0.2,0.2,0.3c0,0.1,0,0.2-0.1,0.2c-0.1,0.4-0.2,0.8-0.1,1.1C19.4,25.4,19.3,25.5,19.2,25.5
		C19.2,25.5,19.2,25.5,19.2,25.5z"/>
	<path fill-rule="evenodd" clip-rule="evenodd" fill="#636262" d="M14.1,31.1c0,0,2-3.1,6.9-2.8c0,0,2.2,0.1,3.9,2.8
		C25,31.1,18.6,33.1,14.1,31.1z"/>
	<path fill="#1C1C1B" d="M19.8,35.3c-1.3,0-2.2-0.8-2.2-0.8c-0.1-0.1-0.1-0.3,0-0.4c0.1-0.1,0.3-0.1,0.4,0l0,0
		c0.1,0.1,1.7,1.6,3.8,0c0.1-0.1,0.3-0.1,0.3,0c0.1,0.1,0.1,0.3,0,0.3C21.3,35.1,20.5,35.3,19.8,35.3z"/>
	<path fill="#1C1C1B" d="M2,27.6c-0.1,0-0.2-0.1-0.2-0.2c0-0.1,0.1-0.3,0.2-0.3l2.2-0.2c0.1,0,0.3,0.1,0.3,0.2
		c0,0.1-0.1,0.3-0.2,0.3L2,27.6C2,27.6,2,27.6,2,27.6z"/>
	<path fill="#1C1C1B" d="M3.2,30.2c-0.1,0-0.2-0.1-0.2-0.2c-0.1-0.1,0-0.3,0.1-0.3l1.5-0.6c0.1-0.1,0.3,0,0.3,0.1
		c0.1,0.1,0,0.3-0.1,0.3L3.2,30.2C3.2,30.2,3.2,30.2,3.2,30.2z"/>
	<path fill="#1C1C1B" d="M36.9,27.4C36.9,27.4,36.9,27.4,36.9,27.4l-2.2-0.2c-0.1,0-0.2-0.1-0.2-0.3c0-0.1,0.1-0.2,0.3-0.2l2.2,0.2
		c0.1,0,0.2,0.1,0.2,0.3C37.1,27.3,37,27.4,36.9,27.4z"/>
	<path fill="#1C1C1B" d="M35.7,30C35.7,30,35.6,30,35.7,30l-1.6-0.6c-0.1-0.1-0.2-0.2-0.1-0.3c0.1-0.1,0.2-0.2,0.3-0.1l1.5,0.6
		c0.1,0.1,0.2,0.2,0.1,0.3C35.9,29.9,35.8,30,35.7,30z"/>
	<path fill-rule="evenodd" clip-rule="evenodd" fill="#FFFFFF" d="M17.7,25.7h3c0,0,0.1,1.4-1.5,1.5C19.3,27.3,17.6,27.3,17.7,25.7z
		"/>
	<ellipse fill-rule="evenodd" clip-rule="evenodd" fill="#1C1C1B" cx="16.6" cy="19.5" rx="1.1" ry="2.5"/>
	<ellipse fill-rule="evenodd" clip-rule="evenodd" fill="#FFFFFF" cx="16.4" cy="18.3" rx="0.4" ry="0.5"/>
	<ellipse fill-rule="evenodd" clip-rule="evenodd" fill="#FFFFFF" cx="17.1" cy="21.2" rx="0.2" ry="0.2"/>
	<ellipse fill-rule="evenodd" clip-rule="evenodd" fill="#1C1C1B" cx="22.1" cy="19.5" rx="1.1" ry="2.5"/>
	<ellipse fill-rule="evenodd" clip-rule="evenodd" fill="#FFFFFF" cx="21.9" cy="18.3" rx="0.4" ry="0.5"/>
	<ellipse fill-rule="evenodd" clip-rule="evenodd" fill="#FFFFFF" cx="22.6" cy="21.2" rx="0.2" ry="0.2"/>
</g>
</svg>
